<?xml version="1.0" encoding="UTF-8" standalone="no"?>
<!DOCTYPE svg PUBLIC "-//W3C//DTD SVG 1.1//EN" "http://www.w3.org/Graphics/SVG/1.1/DTD/svg11.dtd">
<svg width="100%" height="100%" viewBox="0 0 1235 981" version="1.1" xmlns="http://www.w3.org/2000/svg" xmlns:xlink="http://www.w3.org/1999/xlink" xml:space="preserve" xmlns:serif="http://www.serif.com/" style="fill-rule:evenodd;clip-rule:evenodd;stroke-linejoin:round;stroke-miterlimit:2;">
    <g transform="matrix(1,0,0,1,-863.5,-281.1)">
        <path d="M1307,282.4C1319.4,282.7 1353.8,283.5 1383.5,284.1C1413.2,284.8 1437.6,285.4 1437.7,285.4C1437.8,285.5 1436.4,292.5 1434.6,301C1432.8,309.5 1429.9,323 1428.2,331C1426.4,339 1423.5,352.5 1421.5,361C1419.6,369.5 1418,377.1 1418,377.7C1418,378.4 1419.2,379.2 1420.8,379.6C1429.7,381.5 1458,389.6 1466.5,392.6C1472,394.6 1477.3,396.4 1478.2,396.7L1479.8,397.2L1481.3,394.3C1482,392.8 1490,373 1499,350.5C1508,327.9 1515.5,309.4 1515.6,309.2C1515.7,309 1519.1,310.7 1523.2,313.1C1527.2,315.4 1532.1,318.1 1534,319.2C1535.9,320.3 1541.1,323.4 1545.5,326C1549.9,328.6 1561.8,335.5 1572,341.5C1582.2,347.4 1591.9,353 1593.5,354C1595.2,354.9 1608.9,362.8 1624,371.5C1639.1,380.2 1651.7,387.5 1651.9,387.7C1652.1,387.8 1650.1,390.4 1647.4,393.3C1643.2,397.9 1621.1,424 1596.7,453.4L1589.4,462.3L1612.2,485.1C1624.7,497.7 1635.3,508 1635.6,508C1636.1,508 1671,479.2 1672,477.9C1672.3,477.6 1680.8,470.5 1691,462.1L1709.4,446.9L1710.8,448.7C1712.3,450.8 1722.8,467.5 1724.4,470.5C1725,471.6 1728.4,477.4 1732,483.3C1735.6,489.2 1739.2,495.3 1740.1,496.8C1741,498.3 1746.1,506.7 1751.5,515.5C1756.9,524.3 1764.8,537.3 1769,544.5C1773.3,551.6 1780,562.8 1783.9,569.3C1787.9,575.9 1791,581.3 1790.8,581.5C1789.1,582.9 1739.5,602.9 1713.5,612.6C1706.9,615.1 1701.4,617.3 1701.1,617.5C1700.9,617.8 1701.9,620.8 1703.3,624.2C1716.1,654.6 1724.8,693.4 1729.1,738.2L1730.3,750.9L1732.9,751.4C1736.8,752.1 1779.6,751.9 1780.8,751.1C1781.7,750.5 1790.9,727.9 1804.4,693C1807.5,685 1811.7,674.3 1813.7,669.3L1817.3,660.1L1818.9,659.6C1819.8,659.3 1832.4,656.4 1847,653C1872.7,647 1884.8,644.2 1949,628.5C1965.8,624.4 1989.6,618.6 2002,615.6C2014.4,612.6 2030.6,608.6 2038,606.7C2045.4,604.8 2061.6,600.8 2074,598C2086.4,595.1 2096.8,592.6 2097.3,592.3C2097.7,592.1 2098,592.1 2098,592.3C2098,593.8 2086,621.7 2079,636.5C2076.6,641.4 2073.5,648.4 2072,652C2070.4,655.6 2067.4,662.5 2065.2,667.5C2059.8,679.8 2049.7,702.9 2034.5,737.5C2027.5,753.4 2021.8,767.3 2021.8,768.3C2021.9,769.3 2023.7,774.3 2025.8,779.3C2029.1,787 2050.9,835.9 2054,842.5C2055.8,846.3 2076.3,892.5 2086.1,915C2091.6,927.4 2096.5,938.3 2097,939.2C2098.5,941.9 2098.2,942.9 2096,942.3L2093.9,941.8L2094.5,940C2095,938.3 2094.2,936.4 2090.2,930C2089,928.1 2088,927 2088,927.5C2088,928.1 2088.6,929.4 2089.4,930.5C2090.1,931.6 2090.7,933.2 2090.7,934.1L2090.7,935.8L2087.6,935.5C2085.9,935.4 2084.1,935.1 2083.5,935C2081.3,934.5 2079,935.1 2079,936.2C2079,936.8 2079.3,937 2079.6,936.7C2080,936.4 2081.2,936.6 2082.3,937.2C2083.5,937.8 2085.9,938.4 2087.8,938.5C2089.6,938.6 2091.6,939.2 2092.2,939.8L2093.3,940.9L2089.9,940.5C2085,940 2062.9,935 2026.5,926.1C2008.9,921.7 1988.4,916.8 1981,915.1C1951.1,908.1 1936,904.4 1903,896.5C1860.7,886.2 1842.6,881.9 1829.2,878.9C1823.6,877.7 1818.3,876.2 1817.4,875.6C1816,874.5 1812.9,866.6 1793.6,815.5C1788.8,802.8 1784.2,790.8 1783.3,788.7L1781.7,785L1730,785L1729.9,786.2C1729.8,786.9 1729.6,788.5 1729.5,789.8C1729.4,791 1729,796.4 1728.6,801.8C1727,825.2 1722.3,853.4 1716.3,875.9L1712.7,889.2L1714.1,890C1715.6,891 1729.2,895.7 1771.4,910.1C1787.2,915.5 1800.4,920 1800.6,920.2C1800.8,920.5 1798,926.4 1794.4,933.6C1790.8,940.7 1782.9,956.4 1776.8,968.5C1742.2,1037.8 1730.4,1061 1729.9,1061C1729.2,1061 1710.9,1047 1682.4,1024.4C1669.8,1014.5 1659,1006.1 1658.4,1005.7L1657.3,1005L1648.9,1016.3C1639.6,1028.6 1631.8,1038 1622.2,1048.2L1615.8,1054.9L1616.2,1056.4C1616.5,1057.8 1632.1,1075.7 1653.4,1099.2C1658.8,1105.2 1663,1110.4 1662.6,1110.7C1662.2,1111.1 1661,1110.1 1659.7,1108.6C1655.3,1103.1 1651.1,1099 1649.8,1099L1648.5,1099.1L1650.3,1100.1C1652.4,1101.3 1652.6,1103.2 1650.5,1102.4C1649.7,1102 1649,1102.2 1649,1102.8C1649,1103.4 1649.8,1103.7 1650.8,1103.6L1652.5,1103.3L1656,1106.8C1657.9,1108.7 1659.5,1110.8 1659.5,1111.4C1659.6,1112.5 1660.3,1112.6 1663,1111.6L1664.5,1111.1L1669.5,1117.2C1672.3,1120.5 1674.5,1123.5 1674.5,1123.8C1674.5,1124.2 1669.8,1127.8 1664,1132C1652,1140.5 1637.9,1150.8 1624,1161.1C1618.8,1164.9 1607.5,1173.1 1599,1179.2C1583.3,1190.5 1559.6,1207.9 1552.7,1213.2C1550.7,1214.8 1548.6,1215.9 1548.1,1215.6C1547.6,1215.3 1544.9,1209.5 1542,1202.8C1539.1,1196 1535.7,1188.2 1534.5,1185.5C1533.2,1182.7 1530.2,1175.8 1527.7,1170C1525.2,1164.2 1521.4,1155.7 1519.3,1151C1517.1,1146.3 1514.5,1140.3 1513.5,1137.7C1512.5,1135 1511.1,1132.6 1510.5,1132.4C1509.5,1132 1492.5,1138.9 1481.5,1144.1C1477.6,1145.9 1455.6,1153 1453.8,1153C1452.8,1153 1451.7,1153.6 1451.4,1154.4C1450.9,1155.6 1456.9,1179.9 1469.1,1226.8C1471.3,1235.3 1472.9,1242.5 1472.6,1242.8C1471.5,1243.8 1330,1261.3 1321.6,1261.5L1320.7,1261.5L1320.9,1253C1321,1248.3 1321.2,1241.1 1321.5,1237C1323.7,1203 1325.1,1181.6 1325.4,1176.8L1325.8,1171L1324.7,1170.3C1324.1,1169.9 1320,1169.3 1315.6,1168.9C1298.5,1167.4 1286.3,1165.8 1277.2,1164C1272,1162.9 1267.4,1162.3 1267,1162.5C1266.6,1162.8 1265.9,1164.7 1265.6,1166.7C1264.7,1171.4 1258,1202.5 1253.5,1222.5C1251.6,1230.7 1249.5,1240.3 1248.9,1243.7C1248.2,1247.2 1247.2,1250 1246.7,1250C1245.7,1250 1195.3,1231.2 1166.5,1220C1155,1215.5 1137.6,1208.9 1128,1205.3C1118.4,1201.7 1110.3,1198.6 1110.1,1198.5C1109.7,1198.1 1110.3,1197.1 1124.5,1172.5C1139.7,1146.1 1149,1129.8 1149,1129.3C1149,1129.1 1150.1,1127.2 1151.5,1125.2C1152.9,1123.2 1154,1121.1 1154,1120.5C1154,1120 1151.9,1118.4 1149.3,1117C1142.6,1113.4 1122.9,1100.4 1113.3,1093.2C1108.8,1089.8 1104.9,1087 1104.6,1087C1104.1,1087 1086.3,1109.3 1066.1,1135.3C1057.6,1146.2 1050.4,1155.3 1050,1155.5C1049.6,1155.7 1038.6,1144.6 1025.4,1130.7C1012.3,1116.9 995.4,1099.2 988,1091.5C965.9,1068.5 949.5,1051 949.2,1050C949,1049.5 953.1,1046.3 958.2,1042.9C963.3,1039.4 974.9,1031.4 984,1025C993.1,1018.6 1005.3,1010.1 1011.3,1006.2C1017.2,1002.2 1022,998.8 1022,998.5C1022,998.3 1019.6,994.3 1016.7,989.8C1009.8,979.1 1003.3,967.7 998,957C995.7,952.3 993.4,948 992.9,947.4L992,946.3L980.8,951.8C954.9,964.3 937.8,972.5 925.7,978.2L912.8,984.2L912.1,983.4C911.6,982.9 907.9,972.1 903.7,959.5C899.5,946.8 889.7,917.7 882,894.6C874.3,871.6 868.3,852.4 868.5,852C868.8,851.6 874,850.5 880.2,849.6C890.3,848.1 902.2,846.1 946,838.8C952.9,837.7 958.8,836.5 959.2,836.1C959.7,835.7 959.3,830.1 958.5,823.6C957.7,817.1 956.8,804.9 956.4,796.4L955.7,781L956.8,781C957.4,781 958.1,781.6 958.3,782.2C958.6,782.9 958.9,782.4 958.9,781.1C959,779.8 958.7,779 958.3,779.3C958,779.7 957.1,779.5 956.3,778.8L955,777.7L955.6,779.4L956.2,781L909.9,780.8L863.5,780.5L863.7,779.5C863.8,778.9 865.9,761.2 868.4,740C870.9,718.8 873.6,696.1 874.5,689.5C875.3,682.9 877.2,667.4 878.6,655C880,642.6 881.5,632.2 881.8,631.8C882.2,631.4 892,634.2 903.5,638C961.1,656.7 969,659.1 969.9,658.5C970.5,658.2 971,658.4 971,658.9C971,660.7 973.4,659.7 974.3,657.6C975.2,655.3 974.2,654 973,656C972.5,656.8 971.8,657.2 971.5,656.8C970.2,655.5 979.4,628.7 988,608.7C990.4,603.3 992.1,598.8 991.9,598.6C991.4,598.2 949.2,576.1 927.5,565C919.3,560.7 912.4,556.8 912.3,556.3C912.1,555.7 917.5,547 924.3,536.9C957.7,487.4 978.7,456.6 992.1,437.5L998.6,428.1L1023.1,452.6L1022.3,453.5L1021.5,454.3L1023.7,453.1L1043.9,473.6L1064,494.2L1076.6,482.1C1083.5,475.4 1094.3,465.7 1100.6,460.4C1106.9,455.2 1112,450.4 1112,449.8C1112,449.3 1107.2,441.8 1101.3,433.1C1082,405 1060.7,373 1061.1,372.6C1061.3,372.4 1070.1,367.7 1080.5,362.2C1091,356.7 1107.4,348 1117,342.8C1126.6,337.6 1142.2,329.4 1151.5,324.5C1160.9,319.7 1175.1,312.2 1183.1,307.9C1191.1,303.6 1198.2,300 1198.9,299.8L1200.2,299.5L1204.4,314C1206.8,322 1212.6,342.2 1217.5,359C1222.3,375.8 1226.5,389.8 1226.9,390.1C1227.2,390.4 1233.9,388.8 1241.7,386.4C1249.5,384 1263,380.7 1271.7,379C1280.4,377.3 1288.3,375.6 1289.3,375.4L1291,374.9L1290.5,372.7C1290,370.3 1282.2,298.9 1281.3,287.8L1280.7,281.1L1282.6,281.5C1283.7,281.7 1294.6,282.1 1307,282.4ZM1310.5,969.1C1309.5,972.2 1306.3,986.4 1288.9,1065C1285.1,1082.3 1281.3,1099 1280.5,1102C1278.2,1111.2 1274.8,1129.1 1275.3,1129.7C1277.1,1131.4 1326,1137.3 1327.4,1135.9C1328,1135.3 1329.5,1115 1331.5,1081C1332.3,1067 1333.7,1044.9 1334.5,1032C1336.8,996.6 1338.1,971.9 1337.5,971.1C1337.3,970.6 1332.2,970 1326.3,969.7C1320.4,969.3 1314.5,968.7 1313.3,968.4L1311,967.8L1310.5,969.1ZM1422,953.4C1417.9,955.2 1412,957.5 1409,958.5C1406,959.6 1403.1,960.7 1402.7,961.1C1402.2,961.4 1403.7,968.7 1405.9,977.1C1408.1,985.6 1417.1,1021.3 1426,1056.5C1434.8,1091.7 1442.2,1121.1 1442.5,1121.7L1442.9,1123L1450.2,1120.4C1454.2,1119 1458.9,1117.2 1460.5,1116.5C1462.2,1115.8 1466.4,1114 1470,1112.5C1479.5,1108.6 1494.3,1101.8 1495.6,1100.8L1496.8,1100L1483.5,1069.2C1476.2,1052.3 1466.3,1029.5 1461.5,1018.5C1446.2,983.3 1434.6,955.9 1433.5,952.2L1432.9,950L1431.2,950C1430.3,950 1426.1,951.5 1422,953.4ZM1214.6,946.7C1208.8,954.3 1202,963 1199.6,966C1186.3,982.6 1147.1,1032 1143,1037.4C1141.6,1039.1 1137.2,1044.7 1133.3,1049.7C1129.3,1054.7 1126,1059.2 1126,1059.8C1126,1061.3 1168.7,1091 1171,1091C1171.3,1091 1173,1088.2 1174.7,1084.7C1176.5,1081.3 1178.6,1077.4 1179.5,1076C1180.3,1074.6 1185.8,1065.2 1191.6,1055C1222.1,1001.8 1231,986.3 1238.5,973.5C1248.3,956.9 1252,950.1 1252,948.6C1252,948 1249.9,946.5 1247.3,945.3C1244.6,944.1 1239.1,940.8 1235,938.1C1230.9,935.3 1227,933 1226.3,933C1225.7,933 1220.4,939.2 1214.6,946.7ZM1500.9,890.7C1499.1,893.3 1494.7,898.7 1491.2,902.7C1487.7,906.7 1485,910.4 1485.2,910.9C1485.5,911.7 1491.2,918.2 1520.9,951.4C1523.9,954.8 1527.9,959.3 1529.9,961.5C1532.8,964.6 1590.1,1029.2 1591.6,1030.9C1591.8,1031.2 1593.2,1030.3 1594.6,1028.9C1597.6,1026.1 1625.4,993.1 1628.9,988.2L1631.2,984.8L1630.4,984.1C1626.6,981 1617.2,973.5 1604,963.3C1595.5,956.8 1582.2,946.4 1574.5,940.4C1566.8,934.4 1556.5,926.3 1551.5,922.4C1546.6,918.5 1534,908.8 1523.7,900.7C1513.4,892.6 1504.8,886 1504.6,886C1504.5,886 1502.8,888.1 1500.9,890.7ZM1148.5,871.1C1139.1,875.5 1127.7,881 1123,883.2C1118.3,885.4 1106.7,891 1097.2,895.6C1087.7,900.3 1073.3,907.1 1065.2,910.9C1057.1,914.7 1044.7,920.6 1037.5,924C1030.4,927.5 1024,930.3 1023.3,930.3L1022.1,930.3L1023.6,933.9C1028,944.3 1048.5,979 1050.3,979C1051.1,979 1079.9,959.7 1099.5,946.1C1112.1,937.3 1130.5,924.9 1134.3,922.5C1137.7,920.4 1177.1,893.7 1180.6,891.1L1182.7,889.5L1177,881C1173.9,876.3 1170,870.4 1168.4,867.8L1165.4,863L1148.5,871.1ZM1382.3,823.4C1374.3,830.2 1365.3,835.1 1355.8,838L1352,839.2L1352,940L1356.8,940C1373.5,939.9 1394.8,934 1416.5,923.5L1429.5,917.2L1452.5,900.6L1463.3,889.7C1469.2,883.7 1474,878.3 1474,877.6C1474,877 1465.8,871.1 1455.8,864.6C1445.7,858.1 1429.2,847.4 1419,840.9C1408.8,834.3 1397.3,826.9 1393.3,824.5L1386.2,820.2L1382.3,823.4ZM1279.9,825.5C1276.4,828 1269.2,833.2 1264,837.1C1258.8,840.9 1251.4,846.3 1247.5,848.9C1240,854 1234.8,857.7 1220.2,868L1211,874.5L1211,876C1211,878.1 1229.4,897.6 1237.3,903.8C1252.9,916.2 1269.4,925.4 1287.2,931.7C1298.8,935.7 1318.1,940.3 1319.2,939.2C1319.7,938.7 1319.9,915.9 1319.8,888.5L1319.5,838.7L1313,836.5C1303.3,833.3 1298.6,830.7 1287.4,821.9L1286.4,821.1L1279.9,825.5ZM1543.4,784.7L1541.3,785.1L1540,795.8C1539.3,801.7 1537.6,811.3 1536.1,817.2L1533.4,827.9L1561.5,837.5C1592.7,848.3 1634.5,862.7 1661,871.9C1670.6,875.3 1679.2,878 1680.1,878L1681.7,878L1683.9,870.8C1689.8,851 1695.5,817.9 1696.7,796.2L1697.3,785L1622.7,785C1581.7,785 1547.6,784.8 1546.8,784.6C1546.1,784.4 1544.6,784.5 1543.4,784.7ZM1405.4,787.2C1403.3,791.2 1403.7,792.5 1407.3,794.3C1409,795.2 1419.6,802 1430.7,809.2C1441.8,816.5 1453.7,824.3 1457.2,826.4C1460.7,828.6 1470,834.6 1477.9,839.7C1485.8,844.8 1492.6,849 1492.9,849C1494,848.9 1500.9,832.8 1504,823.1C1507.1,813.4 1511,794.1 1511,788.3L1511,785L1508.8,785C1507.5,785 1484.1,784.9 1456.6,784.7L1406.8,784.5L1405.4,787.2ZM1194.3,686.2C1187,698.9 1179,720.4 1175.9,735.9L1173.9,745.5L1172.7,780.7L1173.9,790.6C1174.6,796.1 1176.4,806 1178.1,812.8C1181.2,825.5 1188.8,844.8 1191.3,846.4L1192.7,847.3L1199.1,843C1202.6,840.6 1209.6,835.7 1214.5,832C1225.7,823.7 1237.5,815.4 1250.5,806.5C1256,802.8 1262.1,798.6 1264,797.1C1265.9,795.7 1267.7,794.5 1267.9,794.3C1268.1,794.2 1267.5,791 1266.5,787.2C1263.4,774.5 1264,758.4 1268,746.4C1269.2,742.8 1270,739.7 1269.9,739.6C1264.7,735.4 1227.2,705.8 1221.6,701.5C1217.3,698.2 1210.2,692.7 1205.9,689.2C1201.6,685.8 1197.7,683 1197.1,683C1196.6,683 1195.4,684.5 1194.3,686.2ZM1057.8,780.8L988,781L988,785.3C988,796.4 991.5,827.6 993,830.1L993.8,831.3L1013.1,828.1C1052.5,821.8 1089.3,815.9 1117.5,811.4C1133.4,808.9 1146.5,806.8 1146.6,806.7C1146.7,806.6 1146.1,802.7 1145.4,798C1144.7,793.3 1144.1,787.8 1144.1,785.8C1144,783.8 1143.5,781.8 1142.9,781.4C1141.4,780.5 1136.2,780.5 1057.8,780.8ZM1661.5,632.9C1657.7,634.5 1647.1,638.7 1638,642.4C1628.9,646.1 1615.7,651.4 1608.5,654.1C1601.4,656.8 1594.6,659.5 1593.5,660C1590.3,661.6 1542.3,680.9 1533.2,684.2L1524.9,687.3L1525.4,688.9C1535.2,717.5 1537.7,726.8 1539.3,740.8L1540.4,751.1L1542.7,751.6C1543.9,751.9 1555,752 1567.2,751.7C1579.5,751.4 1613.7,751.1 1643.3,751.1L1697,751L1697,744.7C1697,734.3 1692.8,704.9 1688.9,688.1C1683.9,666.6 1671.7,629.9 1669.5,630.1C1669,630.1 1665.4,631.4 1661.5,632.9ZM1474.5,671.2C1472.3,673 1464.2,679.8 1456.5,686.4C1448.8,693 1440.1,700.4 1437.1,702.9C1434.1,705.4 1426.4,712 1420,717.5C1413.7,723 1406.5,729.1 1404.2,731L1399.9,734.5L1400.4,736.5C1400.6,737.6 1401.9,741.4 1403.2,745L1405.6,751.5L1457.9,751.7L1510.1,751.8L1510.7,750.4C1511.3,748.8 1507.7,728.2 1505.6,721C1503.7,714.6 1497.2,698.5 1493.8,691.5C1490.4,684.8 1479.9,668 1479,668C1478.7,668 1476.7,669.5 1474.5,671.2ZM1018.9,620.6C1011.8,636.5 1001.5,666.1 1002.3,668.3C1002.5,669 1012.4,672.6 1024.1,676.4C1053.8,685.8 1094,698.8 1122.8,708.1C1136.2,712.5 1147.9,716 1148.8,716L1150.6,716L1153.4,707.2C1155,702.4 1157.3,696.1 1158.6,693.1C1159.9,690.2 1161,687.2 1161,686.6C1161,686 1158.2,684.1 1154.8,682.5C1151.3,680.9 1143.6,677 1137.7,673.8C1131.8,670.6 1115.3,662.1 1101.2,654.9C1087.1,647.6 1075.1,641.4 1074.5,641C1074,640.6 1061.9,634.3 1047.7,627.1L1022,613.9L1018.9,620.6ZM1303.5,601.5C1272.4,609.5 1244.3,625.8 1223.3,647.9C1217,654.6 1216,656.4 1218.3,657.3C1218.9,657.5 1222.1,659.8 1225.2,662.4L1230.9,667L1230.4,668.8L1229.8,670.5L1231.8,667.7L1234.3,669.6C1243.6,676.8 1250.2,682 1254.5,685.6C1262.4,692.2 1288.3,712.2 1289.5,712.7C1290.2,712.9 1292,712 1293.6,710.7C1298.2,706.9 1309,701.4 1314.8,699.9L1320,698.6L1320,599L1316.3,599.1C1314.2,599.1 1308.5,600.2 1303.5,601.5ZM1352.7,597.7C1351.7,598.6 1351.9,696.2 1352.8,697.5C1353.2,698.1 1356,699.4 1359,700.4C1362,701.4 1367.5,704.1 1371.3,706.2L1378,710.1L1380.3,708.3C1383.2,706 1387.5,702.4 1413.1,680.3C1424.4,670.5 1438.7,658.3 1444.8,653.1C1451,647.9 1456,643.3 1456,642.9C1456,641.4 1444.3,631.7 1435,625.5C1413,610.8 1393.5,603 1368.5,599C1355.3,596.8 1353.7,596.7 1352.7,597.7ZM1554.4,503.2C1547.9,511.1 1537.2,524 1530.6,532C1524,540 1515.5,550.3 1511.6,555C1507.7,559.7 1502.3,566.2 1499.5,569.6C1496.8,573 1493.3,577.2 1491.8,579.1C1488.8,583 1475.5,599.3 1469.6,606.4L1465.7,611L1476.4,621.5C1482.3,627.3 1487.6,632 1488.3,632C1488.9,632 1491.1,630.3 1493.2,628.3L1497.1,624.5L1498.5,626.9L1501.7,625.3C1503.5,624.5 1504.8,623.4 1504.7,623C1504.6,622.5 1506,621 1507.9,619.6C1509.8,618.2 1510.8,617 1510.1,617C1509.4,617 1507.2,618.6 1505.4,620.4C1503.5,622.3 1500.9,624.2 1499.7,624.5L1497.5,625.1L1502.5,620.5C1505.3,617.9 1509.1,614.6 1511,613.2C1512.9,611.7 1518.1,607.4 1522.5,603.5C1526.9,599.7 1535.3,592.6 1541,587.9C1555.8,575.7 1582.5,553.3 1596.7,541L1608.8,530.6L1606,527C1598.5,517.7 1569.1,489 1567,489C1566.5,489 1560.9,495.4 1554.4,503.2ZM1140.63,586.158L1142.1,585.7L1143.6,585.2L1144.9,587.2C1145.6,588.3 1146.4,588.9 1146.7,588.6C1147,588.3 1146.5,587.4 1145.6,586.5C1144.7,585.6 1144.2,584.4 1144.5,583.9C1144.9,583.4 1144.6,583 1144.1,583C1143.5,583 1143,582.2 1143.1,581.2L1143.2,579.5L1143.7,580.7C1143.9,581.4 1144.8,582 1145.6,582L1147.1,582L1146.8,583.7C1146.6,584.7 1147.1,585.5 1147.8,585.6C1150.3,585.9 1150.5,586.1 1149,587L1147.5,588L1150.3,588C1153.7,588 1153.7,587.5 1150.3,584.4C1148.9,583.1 1147.9,581.7 1148.2,581.4C1148.8,580.9 1194.8,627 1196.3,629.6C1197.7,632 1199.5,631.2 1204.6,625.7C1207.3,622.9 1212.4,618 1215.9,615L1222.2,609.5L1216.5,601.5C1213.3,597.1 1205,584.9 1197.9,574.5C1190.9,564 1177.9,544.9 1169.1,532C1160.2,519.1 1148.5,501.9 1142.9,493.7C1137.4,485.6 1132.3,479 1131.6,479C1131,479 1126.7,481.9 1122.3,485.5C1112.5,493.3 1087.8,517 1088.2,518.1C1088.5,518.8 1100.3,531 1135.4,566.7C1142.5,574 1148.1,580.3 1147.7,580.6C1147.4,580.9 1145.6,579.8 1143.8,578.1C1142,576.4 1139.9,575 1139.2,575C1138.5,575 1138.1,574.6 1138.4,574.2C1138.7,573.7 1138.3,573.3 1137.5,573.3C1135.6,573.3 1135.6,574.9 1137.5,575.6C1139.2,576.3 1139.6,579 1138,579L1136.9,579L1137.9,580.9C1138.5,581.9 1138.6,583 1138.3,583.4C1138,583.7 1138.2,584 1138.9,584L1140.1,584L1138.9,580L1139.9,580C1140.5,580 1140.5,585.4 1140.5,586.2C1140.5,586.37 1140.55,586.328 1140.63,586.158ZM1140.68,586.052L1140.5,586.2L1140.63,586.158C1140.65,586.127 1140.67,586.092 1140.68,586.052L1143.5,583.8L1142.3,583.3C1141.78,583.15 1141.03,585.299 1140.68,586.052ZM1410.5,413.2C1410,415 1402.5,449.3 1399.6,463.5C1396.3,479.7 1381.3,550.8 1379.5,559.2C1378.7,562.9 1378,567 1378,568.3L1378,570.8L1387.2,573.1C1392.3,574.3 1398.7,576.2 1401.4,577.2C1404.2,578.2 1406.7,578.6 1407.1,578.2C1407.7,577.6 1428.6,526 1443.2,489C1446,482.1 1450.6,470.6 1453.5,463.5C1461.5,443.9 1467.2,428.9 1466.9,428.5C1464.8,426.6 1416.3,412 1411.9,412C1411.4,412 1410.8,412.6 1410.5,413.2ZM1286.5,410.2C1272.2,413 1263.2,415.2 1250.6,418.9C1243,421.1 1236.6,423.1 1236.4,423.3C1236,423.7 1240.6,440.1 1250.5,473.5C1253.1,482.3 1256.5,494 1258,499.5C1259.5,505 1263.8,519.4 1267.5,531.5C1273.9,552.6 1278.2,566.8 1280.1,573.7C1280.7,575.5 1281.4,577.2 1281.9,577.4C1282.3,577.7 1284.9,577.1 1287.7,576C1290.5,575 1296.9,573.3 1302,572.3L1311.3,570.6L1310.7,563.5C1310.1,557.3 1308.6,542.6 1303.6,496C1297.2,435.9 1294.2,411.2 1293.4,409.8C1293.1,409.4 1292.6,409.1 1292.2,409.1C1291.8,409.2 1289.3,409.7 1286.5,410.2Z" style="fill:rgb(37,99,235);"/>
    </g>
</svg>
